<svg xmlns="http://www.w3.org/2000/svg" xmlns:xlink="http://www.w3.org/1999/xlink" viewBox="0 0 447 447"><defs><style>.cls-1{fill:url(#Unbenannter_Verlauf);}.cls-2{fill:#e36a5c;}.cls-3{fill:#242c3c;}.cls-4{opacity:0.5;}.cls-5{fill:#95989f;}.cls-6{fill:#fff;}.cls-7{fill:#fdfeff;}.cls-8{fill:#020202;}</style><linearGradient id="Unbenannter_Verlauf" x1="264.02" y1="430.37" x2="263.35" y2="431.04" gradientTransform="translate(343.18 -267.51) rotate(45)" gradientUnits="userSpaceOnUse"><stop offset="0" stop-color="#fff"/><stop offset="1"/></linearGradient></defs><title>Element 13</title><g id="Ebene_2" data-name="Ebene 2"><g id="Ebene_1-2" data-name="Ebene 1"><circle class="cls-1" cx="223.5" cy="223.5" r="223.5"/><rect class="cls-2" x="72.33" y="92.48" width="48.17" height="10.79"/><rect class="cls-3" x="72.33" y="70.9" width="32.11" height="10.79"/><g class="cls-4"><rect class="cls-5" x="88.64" y="135.65" width="96.34" height="10.79"/></g><g class="cls-4"><rect class="cls-5" x="88.64" y="329.93" width="112.14" height="10.79"/></g><rect class="cls-5" x="200.78" y="135.65" width="96.34" height="10.79"/><g class="cls-4"><rect class="cls-5" x="120.63" y="178.83" width="80.16" height="10.79"/></g><rect class="cls-2" x="104.45" y="158.23" width="32.36" height="10.79"/><rect class="cls-5" x="152.49" y="158.23" width="64.35" height="10.79"/><g class="cls-4"><rect class="cls-5" x="152.49" y="373.1" width="64.35" height="10.79"/></g><g class="cls-4"><rect class="cls-5" x="233.09" y="373.1" width="96.4" height="10.79"/></g><g class="cls-4"><rect class="cls-5" x="136.81" y="201.41" width="96.09" height="10.79"/></g><rect class="cls-5" x="248.95" y="201.41" width="144.51" height="10.79"/><rect class="cls-6" x="72.33" y="307.92" width="48.17" height="10.79"/><g class="cls-4"><rect class="cls-5" x="136.62" y="307.92" width="112.33" height="10.79"/></g><rect class="cls-5" x="104.45" y="351.52" width="48.04" height="10.79"/><rect class="cls-6" x="120.5" y="373.1" width="16.31" height="10.79"/><rect class="cls-2" x="168.92" y="351.52" width="63.97" height="10.79"/><g class="cls-4"><rect class="cls-5" x="249.08" y="351.52" width="48.04" height="10.79"/></g><g class="cls-4"><rect class="cls-5" x="216.84" y="179.25" width="32.11" height="10.79"/></g><g class="cls-4"><rect class="cls-5" x="72.33" y="244.58" width="64.23" height="10.79"/></g><rect class="cls-5" x="88.64" y="265.17" width="63.85" height="10.79"/><rect class="cls-6" x="265.26" y="178.83" width="64.22" height="10.79"/><path class="cls-7" d="M112.15,341.11a11.39,11.39,0,0,1-5.25.6,11.61,11.61,0,0,1-10.15-12.84L119.9,123.24a11.48,11.48,0,0,1,12.74-10.15,11.63,11.63,0,0,1,10.15,12.85L119.64,331.56A11.51,11.51,0,0,1,112.15,341.11Z"/><path class="cls-8" d="M352.39,328.87,329.23,123.24a11.47,11.47,0,0,0-20.79-5.35,11.61,11.61,0,0,1,19.31,12.62L310.7,164.62l18.79,166.94a11.53,11.53,0,0,0,7.49,9.55,11.4,11.4,0,0,0,5.25.6A11.62,11.62,0,0,0,352.39,328.87Z"/><path d="M322.55,114.92a11.61,11.61,0,0,0-14.11,3,11.48,11.48,0,0,0-1.47,2.23l-.5,1Q303,128,299.61,134.85l-13,26q-8.37,16.74-16.73,33.47-9,18-18,36Q243.43,247.2,235,264q-9.61,19.2-19.27,38.38c-1.25,2.49-2.53,5-2.81,7.81a11.52,11.52,0,0,0,2.83,8.7,11.34,11.34,0,0,0,8.66,3.77,11.67,11.67,0,0,0,10.4-6.34s49-98.08,75.87-151.73l17.05-34.11A11.62,11.62,0,0,0,322.55,114.92Z"/><path class="cls-6" d="M74.59,267.31A6.87,6.87,0,0,0,78.75,255L42.12,227.06l36.63-27.92a6.86,6.86,0,0,0-8.32-10.92L26.62,221.6a6.87,6.87,0,0,0,0,10.92L70.43,265.9A6.81,6.81,0,0,0,74.59,267.31Z"/><path d="M371.79,267.31A6.87,6.87,0,0,1,367.62,255l36.64-27.92-36.63-27.92A6.86,6.86,0,1,1,376,188.22l43.8,33.38a6.86,6.86,0,0,1,0,10.92L376,265.9A6.83,6.83,0,0,1,371.79,267.31Z"/><path class="cls-7" d="M222.27,280.34l-17.64-35.29-40.32-80.63L142.25,120.3l-.09-.18a11.62,11.62,0,1,0-20.78,10.39L214.3,316.35a11.6,11.6,0,0,0,10.16,6.4v-38Z"/></g></g></svg>