<svg xmlns="http://www.w3.org/2000/svg" viewBox="0 0 447 447"><defs><style>.cls-1{fill:#fff;}.cls-2{fill:#e36a5c;}.cls-3{fill:#242c3c;}.cls-4{opacity:0.5;}.cls-5{fill:#95989f;}</style></defs><title>Element 1</title><g id="Ebene_2" data-name="Ebene 2"><g id="Ebene_1-2" data-name="Ebene 1"><circle class="cls-1" cx="223.5" cy="223.5" r="223.5"/><path d="M369.46,271.41a6.87,6.87,0,0,1-4.17-12.33l36.63-27.92-36.63-27.91a6.87,6.87,0,1,1,8.33-10.93l43.8,33.38a6.87,6.87,0,0,1,0,10.93L373.61,270A6.79,6.79,0,0,1,369.46,271.41Z"/><rect class="cls-2" x="69" y="85.59" width="48.17" height="10.79"/><rect class="cls-3" x="69" y="64" width="32.11" height="10.79"/><g class="cls-4"><rect class="cls-5" x="85.31" y="128.76" width="96.34" height="10.79"/></g><g class="cls-4"><rect class="cls-5" x="85.31" y="323.03" width="112.14" height="10.79"/></g><rect class="cls-5" x="197.45" y="128.76" width="96.34" height="10.79"/><g class="cls-4"><rect class="cls-5" x="117.29" y="171.93" width="80.16" height="10.79"/></g><rect class="cls-2" x="101.11" y="151.34" width="32.36" height="10.79"/><rect class="cls-5" x="149.16" y="151.34" width="64.35" height="10.79"/><g class="cls-4"><rect class="cls-5" x="149.16" y="366.21" width="64.35" height="10.79"/></g><g class="cls-4"><rect class="cls-5" x="229.75" y="366.21" width="96.4" height="10.79"/></g><g class="cls-4"><rect class="cls-5" x="133.48" y="194.51" width="96.09" height="10.79"/></g><rect class="cls-5" x="245.62" y="194.51" width="144.51" height="10.79"/><rect class="cls-1" x="69" y="301.02" width="48.17" height="10.79"/><g class="cls-4"><rect class="cls-5" x="133.29" y="301.02" width="112.33" height="10.79"/></g><rect class="cls-5" x="101.11" y="344.62" width="48.04" height="10.79"/><rect class="cls-1" x="117.17" y="366.21" width="16.31" height="10.79"/><rect class="cls-2" x="165.59" y="344.62" width="63.97" height="10.79"/><g class="cls-4"><rect class="cls-5" x="245.74" y="344.62" width="48.04" height="10.79"/></g><g class="cls-4"><rect class="cls-5" x="213.51" y="172.36" width="32.11" height="10.79"/></g><g class="cls-4"><rect class="cls-5" x="69" y="237.68" width="64.23" height="10.79"/></g><rect class="cls-5" x="85.31" y="258.28" width="63.85" height="10.79"/><rect class="cls-1" x="261.93" y="171.93" width="64.23" height="10.79"/><path d="M336.65,331.21a11.39,11.39,0,0,0,5.25.61A11.62,11.62,0,0,0,352.05,319L328.9,113.35a11.48,11.48,0,0,0-12.74-10.15A11.61,11.61,0,0,0,306,116l23.15,205.63A11.5,11.5,0,0,0,336.65,331.21Z"/><path d="M224.1,312.88a11.62,11.62,0,0,1-10.38-16.82l92.92-185.84a11.61,11.61,0,1,1,20.77,10.39L234.5,306.45A11.63,11.63,0,0,1,224.1,312.88Z"/><path d="M111.81,331.21a11.37,11.37,0,0,1-5.25.61A11.62,11.62,0,0,1,96.41,319l23.15-205.63A11.48,11.48,0,0,1,132.3,103.2,11.62,11.62,0,0,1,142.46,116L119.31,321.67A11.51,11.51,0,0,1,111.81,331.21Z"/><path d="M224.37,312.88a11.63,11.63,0,0,0,10.38-16.82L141.83,110.22a11.62,11.62,0,0,0-20.78,10.39L214,306.45A11.61,11.61,0,0,0,224.37,312.88Z"/><path d="M77.25,271.41a6.87,6.87,0,0,0,4.17-12.33L44.78,231.16l36.64-27.91a6.87,6.87,0,0,0-8.33-10.93L29.29,225.7a6.87,6.87,0,0,0,0,10.93L73.09,270A6.84,6.84,0,0,0,77.25,271.41Z"/></g></g></svg>